<?xml version="1.0" encoding="UTF-8"?>
<svg width="500" height="500" viewBox="0 0 500 500" fill="none" xmlns="http://www.w3.org/2000/svg">
  <!-- Background Circle -->
  <circle cx="250" cy="250" r="200" fill="#BB9AF7" fill-opacity="0.1"/>
  
  <!-- AI Brain Icon -->
  <path d="M250 150C200 150 150 200 150 250C150 300 200 350 250 350C300 350 350 300 350 250C350 200 300 150 250 150Z" stroke="#BB9AF7" stroke-width="4"/>
  <path d="M200 250C200 250 220 220 250 220C280 220 300 250 300 250" stroke="#BB9AF7" stroke-width="4"/>
  <path d="M220 280C220 280 235 260 250 260C265 260 280 280 280 280" stroke="#BB9AF7" stroke-width="4"/>
  
  <!-- Connection Lines -->
  <line x1="150" y1="250" x2="100" y2="200" stroke="#F7768E" stroke-width="2"/>
  <line x1="150" y1="250" x2="100" y2="300" stroke="#F7768E" stroke-width="2"/>
  <line x1="350" y1="250" x2="400" y2="200" stroke="#F7768E" stroke-width="2"/>
  <line x1="350" y1="250" x2="400" y2="300" stroke="#F7768E" stroke-width="2"/>
  
  <!-- Decorative Elements -->
  <circle cx="100" cy="200" r="10" fill="#FF9E64"/>
  <circle cx="100" cy="300" r="10" fill="#FF9E64"/>
  <circle cx="400" cy="200" r="10" fill="#FF9E64"/>
  <circle cx="400" cy="300" r="10" fill="#FF9E64"/>
</svg> 